<svg viewBox="0 0 32 32" xml:space="preserve" xmlns="http://www.w3.org/2000/svg" enable-background="new 0 0 32 32"><path d="M26.9 17v5.6c0 .7-.3 1.2-.7 1.7-.9 1-2.1 1.1-3.3.6-.3-.1-.6-.3-.9-.5-.3-.2-.4-.6-.2-.9.2-.3.6-.4.9-.2.4.2.8.4 1.3.4.6 0 1.3-.4 1.4-1 0-.1.1-.2.1-.3V11.7c0-.6-.3-1-.9-1.2-4.4-1.5-8.9-2.9-13.3-4.3-.8-.2-1.5-.4-2.3-.7-.2 0-.3-.1-.5-.1-.7-.1-1.3.4-1.3 1.2v7.5c0 .1 0 .2-.1.3-.4.5-1.1.5-1.4 0-.1-.1-.1-.1-.1-.2V6.3c0-1 .8-2 2-2.2.4-.2.9-.1 1.3.1.6.2 1.2.4 1.9.6 2.8.8 5.7 1.7 8.5 2.5l6 1.8c.6.2 1 .6 1.3 1.2.2.5.2 1 .2 1.4v.2c.1 1.6.1 3.3.1 5.1z" fill="#ffffff" class="fill-000000"></path><path d="M17.5 19.3v-7c0-.6.4-1 1-1h1.1c.6 0 .9.4.9.9v14c0 .6-.4.9-.9.9h-1.1c-.6 0-.9-.4-.9-.9-.1-2.3-.1-4.6-.1-6.9zM13.3 19.7v-5.1c0-.6.4-1 1-1h.9c.5 0 .9.4.9.9v10.2c0 .6-.4 1-1 1h-.9c-.5 0-.9-.4-.9-.9v-5.1zM12 19.6v3.9c0 .6-.4 1-1 1h-.8c-.5 0-.9-.4-.9-.9V15.8c0-.5.3-.8.7-.9h1.2c.6 0 .9.4.9.9-.1 1.2-.1 2.5-.1 3.8zM7.9 19.6v2.5c0 .5-.4.9-.9.9h-.9c-.5 0-.9-.4-.9-.9v-5c0-.5.4-.9.9-.9h1c.5 0 .9.4.9.9-.2.8-.2 1.7-.1 2.5z" fill="#ffffff" class="fill-000000"></path></svg>